PathFileType	4	(X/Y/Z)	Patient4_TMGait_0pt7_02_left_01.trc.trc
DataRate	CameraRate	NumFrames	NumMarkers	Units	OrigDataRate	OrigDataStartFrame	OrigNumFrames
86.956521739130	86.956521739130	5	33	mm	86.956521739130	89	       141
Frame#	Time	Sacral			L.Shoulder			Chest			R.Shoulder			Neck			R.ASIS			L.ASIS			R.Thigh.Superior			R.Thigh.Lateral			R.Thigh.Inferior			R.Patella			L.Thigh.Superior			L.Thigh.Lateral			L.Thigh.Inferior			L.Patella			L.Shank.Superior			L.Shank.Lateral			L.Shank.Inferior			R.Shank.Superior			R.Shank.Lateral			R.Shank.Inferior			R.Heel			R.Midfoot.Superior			R.Midfoot.Lateral			R.Toe			L.Heel			L.Midfoot.Lateral			L.Midfoot.Superior			L.Toe			L.Elbow			L.Wrist			R.Elbow			R.Wrist			
		X1	Y1	Z1	X2	Y2	Z2	X3	Y3	Z3	X4	Y4	Z4	X5	Y5	Z5	X6	Y6	Z6	X7	Y7	Z7	X8	Y8	Z8	X9	Y9	Z9	X10	Y10	Z10	X11	Y11	Z11	X12	Y12	Z12	X13	Y13	Z13	X14	Y14	Z14	X15	Y15	Z15	X16	Y16	Z16	X17	Y17	Z17	X18	Y18	Z18	X19	Y19	Z19	X20	Y20	Z20	X21	Y21	Z21	X22	Y22	Z22	X23	Y23	Z23	X24	Y24	Z24	X25	Y25	Z25	X26	Y26	Z26	X27	Y27	Z27	X28	Y28	Z28	X29	Y29	Z29	X30	Y30	Z30	X31	Y31	Z31	X32	Y32	Z32	X33	Y33	Z33	

89	1.672000000000	869.242537254584	1008.065747147997	491.976761712884	1075.790985151351	1428.870478227204	305.885618532483	1170.878229950044	1354.822828734560	470.679130732993	1084.015906375951	1437.450159723599	639.054371925368	1073.831241757215	1488.467664868436	459.382337229476	1092.314642636832	938.354540073977	614.948844816585	1081.149931592006	955.278351816654	336.029009231819	1152.068915004528	748.046470800423	587.512536731037	1080.238729990488	634.530284892712	646.226057985479	1163.654662799315	589.319948765911	567.026376545013	1174.583806964206	500.888885906439	573.744605762446	1120.532537305762	738.787317628159	361.845352700587	1033.879014755919	627.029856676303	291.562979576543	1117.692980784586	539.080338528867	349.979987664431	1107.257065369389	453.181394429431	345.535507548477	1035.639515204675	399.048496391613	337.224133982317	895.023339217673	364.219842418925	282.269216476882	871.825372475007	236.662196312252	337.502762500037	1152.305643605522	411.178059696531	582.271505861265	1089.272025354501	303.328902452056	645.144743223649	1137.653049159217	210.703645215769	583.190392935552	1014.303401379504	43.079838299615	557.013851839995	1186.951577162137	98.804071076547	588.075390349102	1099.736159073543	37.287566448055	628.563923448456	1307.551473599151	45.241548035214	611.290548296448	676.273092943320	184.205930555659	365.784613694309	734.677425599748	130.224223427254	292.379242495738	837.833043102902	133.187684820013	318.913045422693	909.860437163831	29.958118234979	304.134943953671	1045.911100486540	1083.858607961787	182.918026463778	1293.114275304445	1025.990895184627	210.522165532130	944.163921820828	1122.059397282821	755.874916647962	940.536876950854	858.937066832945	754.367201633318	
90	1.683500000000	868.206816867461	1009.424018646988	495.640428266046	1073.920289095389	1429.668781255420	307.960481769683	1170.852688760828	1355.277465164364	471.613970489390	1086.142104556903	1437.848874144821	641.025678877693	1073.730806864550	1489.161994672917	461.680927397907	1092.306823251822	939.139049930462	616.699453441103	1079.684426245862	956.021693431646	338.198029441520	1149.211767389121	746.969223166972	590.618352167514	1075.454087828272	634.702667189569	648.683436520742	1158.016763539212	588.494139018369	569.160420212939	1167.637510698632	500.342481189519	575.483047164777	1124.575407157842	742.329201068948	364.868798448365	1043.141336858982	628.131885765610	293.796712026507	1129.584025126404	542.530002352380	352.897992348955	1120.806726682665	455.458769824424	348.140849180131	1047.769139348425	401.193902876262	339.598188239787	906.171559597189	370.680893126742	284.245717877682	879.103116610439	243.745600188289	339.141425281846	1145.290575082355	410.910980732331	583.821810630278	1081.986925151002	303.052890707675	646.337577275084	1130.092439773083	210.532003901029	583.969917716034	1006.291927535338	43.128673518192	557.170464264783	1178.950483016862	98.749628380559	588.433710371848	1091.693123321041	37.230419959119	628.724718330816	1299.580580806441	44.797174019818	611.511515247215	682.286521489374	200.005262281597	366.984405693362	738.045728893520	143.192766372694	293.389243036672	841.515931783745	140.349598216798	320.191188537385	907.386074271080	30.242307203043	304.684388977934	1039.683086720873	1083.784661734203	187.664136111368	1283.427264888655	1009.648781780876	213.336531439336	951.938732773296	1119.816596496150	759.552934530854	958.867793745185	856.678868931277	756.145857935908	
91	1.695000000000	866.974640408087	1010.700338028048	499.109184050083	1071.835949039471	1430.345652941353	309.851268025774	1170.634317280475	1355.559529956686	472.329297879688	1088.169506165538	1438.093880680548	642.802960873969	1073.543162627445	1489.774803599670	463.791251609496	1092.097078236671	939.875543205691	618.291585127521	1078.127936085499	956.698399121164	340.385001143940	1146.265795981432	746.057519335849	593.427377950504	1070.689390517270	634.942220325180	651.001963194091	1152.337419639499	587.743089802265	571.162428753610	1160.625008162789	499.888880902262	577.151062882229	1128.280326769504	746.215217191566	367.902767190699	1052.176909837273	629.830311976952	295.910421303303	1141.073128630161	546.712065585991	355.783626568762	1134.193717813997	458.552982141912	350.741449714768	1060.029713505103	403.941329211345	341.934912391101	917.677214835454	377.130590358377	286.258903245144	887.289588181875	250.811645215530	340.914562016388	1138.253105226178	410.699212187285	585.287533424491	1074.691356414200	302.843383115916	647.498116949672	1122.525032229970	210.409455374280	584.722828572940	998.242932794150	43.208815116234	557.351255946053	1170.913692919654	98.654001369666	588.794643722707	1083.624701189512	37.185561994456	628.892097515011	1291.586717485758	44.327216006132	611.717548480219	689.641664977272	214.448624501625	368.408606264736	743.112836654150	155.401310640430	294.612768358366	846.674779390875	147.683921095097	321.659386633838	907.184717384899	31.409725250196	305.396376065861	1033.699087929069	1083.566557407777	192.315440852119	1272.586422987014	992.538722464304	215.965033962241	960.169781525667	1117.429475862383	763.247402975488	978.197888181384	854.773012301416	757.979973347143	
92	1.706500000000	865.588764634531	1011.901574048364	502.388909982752	1069.583347711377	1430.924599867985	311.557596748254	1170.214352369233	1355.712090324910	472.851971876520	1090.039608575401	1438.240718651113	644.382685649227	1073.274866347036	1490.334430409995	465.686655300300	1091.696887056540	940.594169836218	619.762183077126	1076.423630657701	957.311956155951	342.579187852603	1143.276774943592	745.320524180672	595.910227005851	1065.980424887985	635.247020522684	653.150054398886	1146.674376506625	587.070091878276	573.012935842050	1153.620561034047	499.521913285473	578.707987099119	1131.578218882561	750.447720024764	370.914223851321	1060.821831685104	632.150827095569	297.874064248448	1152.036379492679	551.620971313433	358.516763871398	1147.288018227693	462.478194183934	353.170410233450	1072.306679319730	407.291862583808	344.113515609792	929.374917475339	383.440601199499	288.265669887822	896.386871441758	257.643380565578	342.744143011170	1131.240392220337	410.542252684998	586.644345277613	1067.418141044480	302.713644071156	648.610816831163	1114.967775016153	210.338140318718	585.434431321500	990.164797670714	43.313963281979	557.555461427778	1162.853516475887	98.532796661118	589.150324022844	1075.537518475950	37.157312365700	629.068332733430	1283.569139408273	43.871732595494	611.919058813842	698.250346511467	226.990514754657	370.031597155966	749.913003625230	166.345136276126	296.029119506105	853.428836394238	154.886113562186	323.256791687569	909.660053481024	33.501368989164	306.265992667843	1027.960868520327	1083.225400259778	196.880949798465	1260.445853422232	974.857780051833	218.403229328621	968.886742308707	1114.937661580739	766.885797944315	998.516396985280	853.340260366523	759.778218808881	
93	1.718000000000	864.096505679709	1013.035074926332	505.496553266311	1067.205517761024	1431.424778254985	313.087179373271	1169.595250452316	1355.782232886101	473.215395251586	1091.706181832233	1438.345810720526	645.769516321328	1072.925972670039	1490.863138227571	467.353086181035	1091.122355843600	941.309187669603	621.138992323708	1074.514004093104	957.866558184718	344.758680613947	1140.262111994992	744.736715180428	598.065222372564	1061.332875557827	635.603591890990	655.105790801778	1141.056384510502	586.467746492989	574.700463459508	1146.672265082010	499.227494265303	580.122474892369	1134.428888744451	755.011459221423	373.853501434954	1068.942325556173	635.078295480065	299.657777356735	1162.384582243206	557.214784044897	360.981355679836	1159.981522618010	467.215729359804	355.285156764424	1084.508741663715	411.215005667889	346.033470118233	941.132641793351	389.463254215723	290.214977840518	906.401640557274	264.017496791797	344.556768862513	1124.277207578067	410.433754827833	587.873634042845	1060.183191388120	302.666149700095	649.660785593538	1107.428440434953	210.314555235922	586.091607225282	982.065963411468	43.436958228600	557.778434540162	1154.783267876161	98.402650044283	589.491424704752	1067.438003939344	37.146593406367	629.251976909833	1275.529147944611	43.458592837195	612.120717415951	708.037918316477	237.185878280119	371.825038463454	758.450665237921	175.592615365724	297.605118637961	861.868603539022	161.639456112754	324.915115838982	915.113737739010	36.423609616958	307.252658275760	1022.453927681966	1082.790950091701	201.364467616544	1246.874461675648	956.854150569183	220.655229903196	978.097717606000	1112.402267127877	770.400965103769	1019.791894682672	852.520078456051	761.449485589151	
